<svg xmlns="http://www.w3.org/2000/svg" version="1.1" xmlns:xlink="http://www.w3.org/1999/xlink" xmlns:svgjs="http://svgjs.dev/svgjs" width="1500" height="1500" viewBox="0 0 1500 1500"><rect width="1500" height="1500" fill="#ffffff"></rect><g transform="matrix(0.6666666666666666,0,0,0.6666666666666666,249.39393939393938,639.5198917693117)"><svg viewBox="0 0 396 88" data-background-color="#ffffff" preserveAspectRatio="xMidYMid meet" height="333" width="1500" xmlns="http://www.w3.org/2000/svg" xmlns:xlink="http://www.w3.org/1999/xlink"><g id="tight-bounds" transform="matrix(1,0,0,1,0.2400000000000091,-0.2060832238713317)"><svg viewBox="0 0 395.52 88.41216644774266" height="88.41216644774266" width="395.52"><g><svg viewBox="0 0 452.8809232851499 101.23428289465527" height="88.41216644774266" width="395.52"><g transform="matrix(1,0,0,1,57.360923285149894,13.991134611345267)"><svg viewBox="0 0 395.52 73.25201367196473" height="73.25201367196473" width="395.52"><g id="textblocktransform"><svg viewBox="0 0 395.52 73.25201367196473" height="73.25201367196473" width="395.52" id="textblock"><g><svg viewBox="0 0 395.52 48.76793858947704" height="48.76793858947704" width="395.52"><g transform="matrix(1,0,0,1,0,0)"><svg width="395.52" viewBox="2.9 -37.75 312.62 38.55" height="48.76793858947704" data-palette-color="#287a0f"><path d="M24.2-24.4L22.4-24.4Q22.25-26.8 21.25-28.95 20.25-31.1 18.35-32.45 16.45-33.8 13.5-33.8L13.5-33.8Q10.4-33.8 8.75-32.05 7.1-30.3 7.1-27.95L7.1-27.95Q7.1-25.85 8.3-24.43 9.5-23 11.43-21.93 13.35-20.85 15.5-19.85L15.5-19.85Q17.4-19 19.3-18.03 21.2-17.05 22.75-15.8 24.3-14.55 25.23-12.83 26.15-11.1 26.15-8.7L26.15-8.7Q26.15-5.95 24.78-3.8 23.4-1.65 20.8-0.43 18.2 0.8 14.45 0.8L14.45 0.8Q12.2 0.8 9.8 0.15 7.4-0.5 5.55-1.75L5.55-1.75 5.8 0.4 3.2 0.4 2.9-10.25 4.85-10.25Q5.1-5.85 7.9-3.58 10.7-1.3 14.65-1.3L14.65-1.3Q16.6-1.3 18.25-2.02 19.9-2.75 20.88-4.15 21.85-5.55 21.85-7.55L21.85-7.55Q21.85-9.8 20.65-11.3 19.45-12.8 17.55-13.9 15.65-15 13.5-16L13.5-16Q11.6-16.85 9.75-17.8 7.9-18.75 6.38-19.98 4.85-21.2 3.93-22.9 3-24.6 3-27L3-27Q3-28.3 3.45-29.8 3.9-31.3 5.03-32.68 6.15-34.05 8.13-34.93 10.1-35.8 13.15-35.8L13.15-35.8Q15.05-35.8 17.43-35.27 19.8-34.75 21.85-33.25L21.85-33.25 21.65-35.4 24.2-35.4 24.2-24.4ZM42.65 0.8L42.65 0.8Q39.2 0.8 36.42-0.83 33.65-2.45 32.05-5.43 30.45-8.4 30.45-12.45L30.45-12.45Q30.45-15.95 32.02-19 33.6-22.05 36.45-23.93 39.3-25.8 43.05-25.8L43.05-25.8Q45.15-25.8 46.97-25.13 48.8-24.45 50.2-23.08 51.6-21.7 52.4-19.63 53.2-17.55 53.2-14.75L53.2-14.75 35.6-14.45Q35.6-10.65 36.42-7.78 37.25-4.9 39.1-3.33 40.95-1.75 43.85-1.75L43.85-1.75Q45.4-1.75 47.02-2.3 48.65-2.85 50.05-3.8 51.45-4.75 52.3-5.9L52.3-5.9 53.5-4.9Q52.15-2.8 50.25-1.55 48.35-0.3 46.35 0.25 44.35 0.8 42.65 0.8ZM35.75-16.55L35.75-16.55 48.5-16.55Q48.5-18.35 47.97-20.03 47.45-21.7 46.25-22.78 45.05-23.85 43.1-23.85L43.1-23.85Q40.2-23.85 38.27-22.13 36.35-20.4 35.75-16.55ZM67.85 0L57.65 0 57.65-1.5Q59.2-1.5 59.8-2.27 60.4-3.05 60.5-4.42 60.6-5.8 60.6-7.6L60.6-7.6 60.65-19Q60.65-19.8 60.67-20.6 60.7-21.4 60.85-22.25L60.85-22.25Q59.95-22.2 59.07-22.15 58.2-22.1 57.3-22.05L57.3-22.05 57.3-24.15Q59.5-24.15 60.62-24.35 61.75-24.55 62.3-24.85 62.85-25.15 63.2-25.5L63.2-25.5 64.65-25.5Q64.7-25.15 64.72-24.7 64.75-24.25 64.8-23.7 64.85-23.15 64.85-22.45L64.85-22.45Q65.95-23.4 67.27-24.15 68.6-24.9 70.07-25.35 71.55-25.8 73-25.8L73-25.8Q77.35-25.8 79.35-23.08 81.35-20.35 81.35-14.6L81.35-14.6 81.35-5.3Q81.35-4.3 81.32-3.53 81.3-2.75 81.15-1.9L81.15-1.9Q81.95-1.95 82.72-1.98 83.5-2 84.3-2.05L84.3-2.05 84.3 0 74.1 0 74.1-1.5Q75.65-1.5 76.25-2.27 76.85-3.05 76.95-4.42 77.05-5.8 77.05-7.6L77.05-7.6 77.05-14.6Q77-18.9 75.62-21.1 74.25-23.3 71.3-23.25L71.3-23.25Q69.5-23.2 67.77-22.3 66.05-21.4 64.9-20L64.9-20Q64.95-19.6 64.95-19.1 64.95-18.6 64.95-18.05L64.95-18.05 64.9-5.3Q64.9-4.3 64.87-3.53 64.85-2.75 64.7-1.9L64.7-1.9Q65.5-1.95 66.27-1.98 67.05-2 67.85-2.05L67.85-2.05 67.85 0ZM87.99 0L87.99-1.5Q89.54-1.5 90.14-2.27 90.74-3.05 90.84-4.42 90.94-5.8 90.94-7.6L90.94-7.6 90.94-19Q90.94-19.8 90.99-20.53 91.04-21.25 91.14-22.25L91.14-22.25Q90.24-22.2 89.37-22.15 88.49-22.1 87.59-22.05L87.59-22.05 87.59-24.15Q89.79-24.15 90.99-24.35 92.19-24.55 92.82-24.85 93.44-25.15 93.79-25.5L93.79-25.5 95.24-25.5 95.24-5.3Q95.24-4.3 95.22-3.53 95.19-2.75 95.04-1.9L95.04-1.9Q95.84-1.95 96.62-1.98 97.39-2 98.19-2.05L98.19-2.05 98.19 0 87.99 0ZM92.79-30.45L92.79-30.45Q91.74-30.45 90.94-31.3 90.14-32.15 90.14-33.4L90.14-33.4Q90.14-34.65 90.97-35.52 91.79-36.4 92.84-36.4L92.84-36.4Q93.99-36.4 94.77-35.52 95.54-34.65 95.54-33.4L95.54-33.4Q95.54-32.15 94.72-31.3 93.89-30.45 92.79-30.45ZM114.44 0.8L114.44 0.8Q110.94 0.8 108.09-0.83 105.24-2.45 103.57-5.33 101.89-8.2 101.89-11.9L101.89-11.9Q101.89-15.85 103.54-19 105.19-22.15 108.04-23.98 110.89-25.8 114.44-25.8L114.44-25.8Q117.94-25.8 120.79-24.13 123.64-22.45 125.34-19.6 127.04-16.75 127.04-13.1L127.04-13.1Q127.04-9.25 125.37-6.08 123.69-2.9 120.84-1.05 117.99 0.8 114.44 0.8ZM114.84-1.2L114.84-1.2Q117.49-1.2 119.04-2.7 120.59-4.2 121.27-6.6 121.94-9 121.94-11.65L121.94-11.65Q121.94-13.9 121.52-16.07 121.09-18.25 120.19-20.03 119.29-21.8 117.87-22.85 116.44-23.9 114.44-23.9L114.44-23.9Q111.84-23.9 110.19-22.4 108.54-20.9 107.77-18.5 106.99-16.1 106.99-13.35L106.99-13.35Q106.99-10.25 107.84-7.48 108.69-4.7 110.44-2.95 112.19-1.2 114.84-1.2ZM131.29 0L131.29-1.5Q132.84-1.5 133.44-2.27 134.04-3.05 134.14-4.42 134.24-5.8 134.24-7.6L134.24-7.6 134.24-19Q134.24-19.8 134.26-20.6 134.29-21.4 134.44-22.25L134.44-22.25Q133.54-22.2 132.66-22.18 131.79-22.15 130.89-22.1L130.89-22.1 130.89-24.15 132.44-24.15Q134.59-24.15 135.41-24.58 136.24-25 136.79-25.5L136.79-25.5 138.24-25.5Q138.34-24.7 138.39-23.53 138.44-22.35 138.49-20.55L138.49-20.55Q139.24-21.8 140.54-23 141.84-24.2 143.46-25 145.09-25.8 146.89-25.8L146.89-25.8Q148.29-25.8 149.34-25.05 150.39-24.3 150.39-22.65L150.39-22.65Q150.39-22.25 150.14-21.68 149.89-21.1 149.34-20.68 148.79-20.25 147.89-20.25L147.89-20.25Q146.79-20.3 146.14-21.13 145.49-21.95 145.64-23.05L145.64-23.05Q144.39-23.1 143.06-22.4 141.74-21.7 140.59-20.48 139.44-19.25 138.54-17.6L138.54-17.6 138.59-5.3Q138.59-4.3 138.56-3.53 138.54-2.75 138.39-1.9L138.39-1.9Q139.19-1.95 139.96-1.98 140.74-2 141.54-2.05L141.54-2.05 141.54 0 131.29 0ZM171.44-14.45L153.69-14.25 153.69-17.75 171.44-17.75 171.44-14.45ZM198.28-24.4L196.48-24.4Q196.33-26.8 195.33-28.95 194.33-31.1 192.43-32.45 190.53-33.8 187.58-33.8L187.58-33.8Q184.48-33.8 182.83-32.05 181.18-30.3 181.18-27.95L181.18-27.95Q181.18-25.85 182.38-24.43 183.58-23 185.51-21.93 187.43-20.85 189.58-19.85L189.58-19.85Q191.48-19 193.38-18.03 195.28-17.05 196.83-15.8 198.38-14.55 199.31-12.83 200.23-11.1 200.23-8.7L200.23-8.7Q200.23-5.95 198.86-3.8 197.48-1.65 194.88-0.43 192.28 0.8 188.53 0.8L188.53 0.8Q186.28 0.8 183.88 0.15 181.48-0.5 179.63-1.75L179.63-1.75 179.88 0.4 177.28 0.4 176.98-10.25 178.93-10.25Q179.18-5.85 181.98-3.58 184.78-1.3 188.73-1.3L188.73-1.3Q190.68-1.3 192.33-2.02 193.98-2.75 194.96-4.15 195.93-5.55 195.93-7.55L195.93-7.55Q195.93-9.8 194.73-11.3 193.53-12.8 191.63-13.9 189.73-15 187.58-16L187.58-16Q185.68-16.85 183.83-17.8 181.98-18.75 180.46-19.98 178.93-21.2 178.01-22.9 177.08-24.6 177.08-27L177.08-27Q177.08-28.3 177.53-29.8 177.98-31.3 179.11-32.68 180.23-34.05 182.21-34.93 184.18-35.8 187.23-35.8L187.23-35.8Q189.13-35.8 191.51-35.27 193.88-34.75 195.93-33.25L195.93-33.25 195.73-35.4 198.28-35.4 198.28-24.4ZM220.68 0L220.68-1.5Q222.23-1.5 222.83-2.27 223.43-3.05 223.53-4.42 223.63-5.8 223.63-7.6L223.63-7.6 223.63-14.6Q223.63-18.9 222.26-21.05 220.88-23.2 217.93-23.15L217.93-23.15Q216.08-23.1 214.31-22.25 212.53-21.4 211.43-20.05L211.43-20.05 211.43-5.3Q211.43-4.3 211.38-3.53 211.33-2.75 211.18-1.9L211.18-1.9Q211.98-1.95 212.76-1.98 213.53-2 214.33-2.05L214.33-2.05 214.33 0 204.13 0 204.13-1.5Q205.68-1.5 206.28-2.27 206.88-3.05 207.01-4.42 207.13-5.8 207.13-7.6L207.13-7.6 207.13-31.25Q207.13-32.05 207.16-32.77 207.18-33.5 207.28-34.5L207.28-34.5Q206.38-34.45 205.51-34.4 204.63-34.35 203.73-34.3L203.73-34.3 203.73-36.4Q205.93-36.4 207.16-36.6 208.38-36.8 209.01-37.1 209.63-37.4 209.98-37.75L209.98-37.75 211.43-37.75 211.43-22.5Q212.53-23.45 213.91-24.18 215.28-24.9 216.76-25.35 218.23-25.8 219.63-25.8L219.63-25.8Q223.98-25.8 225.91-23.08 227.83-20.35 227.88-14.6L227.88-14.6 227.93-5.3Q227.93-4.3 227.91-3.53 227.88-2.75 227.73-1.9L227.73-1.9Q228.53-1.95 229.31-1.98 230.08-2 230.88-2.05L230.88-2.05 230.88 0 220.68 0ZM234.58 0L234.58-1.5Q236.13-1.5 236.73-2.27 237.33-3.05 237.43-4.42 237.53-5.8 237.53-7.6L237.53-7.6 237.53-19Q237.53-19.8 237.58-20.53 237.63-21.25 237.73-22.25L237.73-22.25Q236.83-22.2 235.95-22.15 235.08-22.1 234.18-22.05L234.18-22.05 234.18-24.15Q236.38-24.15 237.58-24.35 238.78-24.55 239.4-24.85 240.03-25.15 240.38-25.5L240.38-25.5 241.83-25.5 241.83-5.3Q241.83-4.3 241.8-3.53 241.78-2.75 241.63-1.9L241.63-1.9Q242.43-1.95 243.2-1.98 243.98-2 244.78-2.05L244.78-2.05 244.78 0 234.58 0ZM239.38-30.45L239.38-30.45Q238.33-30.45 237.53-31.3 236.73-32.15 236.73-33.4L236.73-33.4Q236.73-34.65 237.55-35.52 238.38-36.4 239.43-36.4L239.43-36.4Q240.58-36.4 241.35-35.52 242.13-34.65 242.13-33.4L242.13-33.4Q242.13-32.15 241.3-31.3 240.48-30.45 239.38-30.45ZM260.73 0.8L260.73 0.8Q257.28 0.8 254.5-0.83 251.73-2.45 250.13-5.43 248.53-8.4 248.53-12.45L248.53-12.45Q248.53-15.95 250.1-19 251.68-22.05 254.53-23.93 257.38-25.8 261.13-25.8L261.13-25.8Q263.23-25.8 265.05-25.13 266.88-24.45 268.28-23.08 269.68-21.7 270.48-19.63 271.28-17.55 271.28-14.75L271.28-14.75 253.68-14.45Q253.68-10.65 254.5-7.78 255.33-4.9 257.18-3.33 259.03-1.75 261.93-1.75L261.93-1.75Q263.48-1.75 265.1-2.3 266.73-2.85 268.13-3.8 269.53-4.75 270.38-5.9L270.38-5.9 271.58-4.9Q270.23-2.8 268.33-1.55 266.43-0.3 264.43 0.25 262.43 0.8 260.73 0.8ZM253.83-16.55L253.83-16.55 266.58-16.55Q266.58-18.35 266.05-20.03 265.53-21.7 264.33-22.78 263.13-23.85 261.18-23.85L261.18-23.85Q258.28-23.85 256.35-22.13 254.43-20.4 253.83-16.55ZM275.22 0L275.22-1.5Q276.77-1.5 277.37-2.27 277.97-3.05 278.07-4.42 278.17-5.8 278.17-7.6L278.17-7.6 278.17-31.25Q278.17-32.05 278.2-32.77 278.22-33.5 278.32-34.5L278.32-34.5Q277.42-34.45 276.55-34.4 275.67-34.35 274.77-34.3L274.77-34.3 274.77-36.4Q276.97-36.4 278.2-36.6 279.42-36.8 280.05-37.1 280.67-37.4 281.02-37.75L281.02-37.75 282.47-37.75 282.52-5.3Q282.52-4.3 282.47-3.53 282.42-2.75 282.27-1.9L282.27-1.9Q283.07-1.95 283.85-1.98 284.62-2 285.42-2.05L285.42-2.05 285.42 0 275.22 0ZM300.02 0.8L300.02 0.8Q296.97 0.8 294.52-0.73 292.07-2.25 290.65-5.1 289.22-7.95 289.22-11.8L289.22-11.8Q289.22-15.9 290.87-19.05 292.52-22.2 295.45-24 298.37-25.8 302.07-25.8L302.07-25.8Q303.72-25.8 305.35-25.38 306.97-24.95 307.92-24.4L307.92-24.4 307.92-31.25Q307.92-32.05 307.95-32.77 307.97-33.5 308.07-34.5L308.07-34.5Q307.17-34.45 306.3-34.4 305.42-34.35 304.52-34.3L304.52-34.3 304.52-36.4Q306.72-36.4 307.92-36.6 309.12-36.8 309.75-37.1 310.37-37.4 310.72-37.75L310.72-37.75 312.17-37.75 312.17-5.3Q312.17-4.5 312.12-3.7 312.07-2.9 311.97-1.9L311.97-1.9Q312.87-1.95 313.75-2 314.62-2.05 315.52-2.1L315.52-2.1 315.52 0 308.37 0Q308.22-0.75 308.15-1.38 308.07-2 308.02-2.6L308.02-2.6Q306.62-1.05 304.57-0.13 302.52 0.8 300.02 0.8ZM301.82-1.65L301.82-1.65Q303.47-1.65 305.15-2.6 306.82-3.55 307.92-4.95L307.92-4.95Q307.87-5.55 307.87-6.23 307.87-6.9 307.87-7.7L307.87-7.7 307.92-22.1Q306.72-23 305.3-23.43 303.87-23.85 302.37-23.85L302.37-23.85Q299.87-23.85 298.02-22.4 296.17-20.95 295.22-18.35 294.27-15.75 294.37-12.25L294.37-12.25Q294.47-9.2 295.35-6.8 296.22-4.4 297.85-3.03 299.47-1.65 301.82-1.65Z" opacity="1" transform="matrix(1,0,0,1,0,0)" fill="#000000" class="wordmark-text-0" data-fill-palette-color="primary" id="text-0"></path></svg></g></svg></g><g transform="matrix(1,0,0,1,0,60.28087845992643)"><svg viewBox="0 0 232.20979199999996 12.971135212038302" height="12.971135212038302" width="232.20979199999996"><g transform="matrix(1,0,0,1,0,0)"><svg width="232.20979199999996" viewBox="2.4 -39.5 877.11 49" height="12.971135212038302" data-palette-color="#287a0f"><path d="M2.4-2.15L6.6-3.2 6.6-32.8 2.4-33.85 2.4-36 11.95-36 30.65-8.35 30.65-32.8 26.45-33.85 26.45-36 38.1-36 38.1-33.85 33.9-32.8 33.9 0 30.35 0 9.85-29.95 9.85-3.2 14.05-2.15 14.05 0 2.4 0 2.4-2.15ZM63.95-13.2L63.95-13.2 46.5-13.2Q46.5-9.55 47.5-7.15L47.5-7.15Q48.5-4.85 50.35-3.85 52.2-2.85 54.35-2.85L54.35-2.85Q56.7-2.85 58.65-3.83 60.6-4.8 62.15-6.5L62.15-6.5 63.75-5.3Q62-2.9 59.5-1.2 57 0.5 53.05 0.5L53.05 0.5Q49.6 0.5 46.95-0.98 44.3-2.45 42.9-5.3L42.9-5.3Q42.15-6.85 41.8-8.75 41.45-10.65 41.45-12.8L41.45-12.8Q41.45-19.8 44.67-23.65 47.9-27.5 53.45-27.5L53.45-27.5Q58.55-27.5 61.32-24.33 64.1-21.15 64.1-15.55L64.1-15.55Q64.1-15.05 64.07-14.63 64.05-14.2 63.95-13.2ZM53.15-24.8L53.15-24.8Q47.15-24.8 46.55-15.65L46.55-15.65 59.05-15.65 59.05-17.3Q59.05-20.9 57.52-22.85 56-24.8 53.15-24.8ZM76.65-24.95L74.45-24 80.55-16.05 86.4-24 83.4-24.95 83.4-27 92.8-27 92.8-24.95 89.95-24 81.85-14.35 90.7-2.95 93.45-2.05 93.45 0 82.5 0 82.5-2.05 85.35-3 78.9-11.3 72.7-3 75.7-2.05 75.7 0 66.3 0 66.3-2.05 69.1-3 77.6-13 69.1-24 66.3-24.95 66.3-27 76.65-27 76.65-24.95ZM99.34-24.5L94.49-24.5 94.49-26.3 99.34-27 99.99-33.3 104.19-33.9 104.19-27 110.59-27 110.59-24.5 104.19-24.5 104.19-6.65Q104.19-4.95 104.24-4.33 104.29-3.7 104.44-3.3L104.44-3.3Q104.59-2.95 104.99-2.83 105.39-2.7 106.29-2.7L106.29-2.7 109.79-2.7 109.79-1.25Q107.39-0.35 105.57 0.08 103.74 0.5 102.64 0.5L102.64 0.5Q100.39 0.5 99.74-1.35L99.74-1.35Q99.54-1.95 99.44-2.9 99.34-3.85 99.34-5.7L99.34-5.7 99.34-24.5ZM127.09-12.2L114.54-12.2 114.54-15.55 127.09-15.55 127.09-12.2ZM149.29-2.75L149.29-2.75Q153.54-2.75 155.66-4.88 157.79-7 157.79-11.15L157.79-11.15 157.79-14.65 153.59-15.7 153.59-17.95 166.99-17.95 166.99-15.7 162.79-14.65 162.79 0 160.19 0 158.94-3.95Q156.79-1.55 154.46-0.53 152.14 0.5 148.99 0.5L148.99 0.5Q142.14 0.5 138.04-3.7L138.04-3.7Q135.74-6.05 134.46-9.65 133.19-13.25 133.19-17.6L133.19-17.6Q133.19-22.05 134.51-25.88 135.84-29.7 138.24-32.2L138.24-32.2Q140.29-34.35 143.01-35.43 145.74-36.5 149.19-36.5L149.19-36.5Q152.19-36.5 154.34-35.58 156.49-34.65 158.34-32.55L158.34-32.55 159.44-36 162.19-36 162.19-24.95 159.14-24.95Q158.44-29.35 155.86-31.58 153.29-33.8 148.99-33.8L148.99-33.8Q146.49-33.8 144.76-32.98 143.04-32.15 141.79-30.4L141.79-30.4Q140.39-28.3 139.56-25.1 138.74-21.9 138.74-18.3L138.74-18.3Q138.74-14.6 139.61-11.45 140.49-8.3 142.09-6.1L142.09-6.1Q143.39-4.35 145.09-3.55 146.79-2.75 149.29-2.75ZM193.04-13.2L193.04-13.2 175.59-13.2Q175.59-9.55 176.59-7.15L176.59-7.15Q177.59-4.85 179.44-3.85 181.29-2.85 183.44-2.85L183.44-2.85Q185.79-2.85 187.74-3.83 189.69-4.8 191.24-6.5L191.24-6.5 192.84-5.3Q191.09-2.9 188.59-1.2 186.09 0.5 182.14 0.5L182.14 0.5Q178.69 0.5 176.04-0.98 173.39-2.45 171.99-5.3L171.99-5.3Q171.24-6.85 170.89-8.75 170.54-10.65 170.54-12.8L170.54-12.8Q170.54-19.8 173.76-23.65 176.99-27.5 182.54-27.5L182.54-27.5Q187.64-27.5 190.41-24.33 193.19-21.15 193.19-15.55L193.19-15.55Q193.19-15.05 193.16-14.63 193.14-14.2 193.04-13.2ZM182.24-24.8L182.24-24.8Q176.24-24.8 175.64-15.65L175.64-15.65 188.14-15.65 188.14-17.3Q188.14-20.9 186.61-22.85 185.09-24.8 182.24-24.8ZM197.18-2.05L201.03-3 201.03-24 197.18-24.95 197.18-27 204.38-27 205.48-22 205.68-22Q207.18-24.55 209.73-26.03 212.28-27.5 215.18-27.5L215.18-27.5Q219.33-27.5 221.33-24.8L221.33-24.8Q222.33-23.4 222.76-20.88 223.18-18.35 223.18-14.05L223.18-14.05 223.18-3 227.03-2.05 227.03 0 214.98 0 214.98-2.05 218.33-3 218.33-14.15Q218.33-17.4 218.16-19 217.98-20.6 217.53-21.5L217.53-21.5Q216.93-22.7 215.81-23.33 214.68-23.95 213.13-23.95L213.13-23.95Q210.23-23.95 208.13-22.1L208.13-22.1Q206.08-20.25 205.88-16.35L205.88-16.35 205.88-3 209.23-2.05 209.23 0 197.18 0 197.18-2.05ZM278.58-33.85L274.38-32.8 274.38-3.2 278.58-2.15 278.58 0 265.18 0 265.18-2.15 269.38-3.2 269.38-17.05 252.43-17.05 252.43-3.2 256.63-2.15 256.63 0 243.23 0 243.23-2.15 247.43-3.2 247.43-32.8 243.23-33.85 243.23-36 256.63-36 256.63-33.85 252.43-32.8 252.43-19.95 269.38-19.95 269.38-32.8 265.18-33.85 265.18-36 278.58-36 278.58-33.85ZM304.78-13.2L304.78-13.2 287.33-13.2Q287.33-9.55 288.33-7.15L288.33-7.15Q289.33-4.85 291.18-3.85 293.03-2.85 295.18-2.85L295.18-2.85Q297.53-2.85 299.48-3.83 301.43-4.8 302.98-6.5L302.98-6.5 304.58-5.3Q302.83-2.9 300.33-1.2 297.83 0.5 293.88 0.5L293.88 0.5Q290.43 0.5 287.78-0.98 285.13-2.45 283.73-5.3L283.73-5.3Q282.98-6.85 282.63-8.75 282.28-10.65 282.28-12.8L282.28-12.8Q282.28-19.8 285.5-23.65 288.73-27.5 294.28-27.5L294.28-27.5Q299.38-27.5 302.15-24.33 304.93-21.15 304.93-15.55L304.93-15.55Q304.93-15.05 304.9-14.63 304.88-14.2 304.78-13.2ZM293.98-24.8L293.98-24.8Q287.98-24.8 287.38-15.65L287.38-15.65 299.88-15.65 299.88-17.3Q299.88-20.9 298.35-22.85 296.83-24.8 293.98-24.8ZM309.02-5.85L309.02-5.85Q309.02-9.75 312.67-12 316.32-14.25 324.77-15.5L324.77-15.5Q324.57-18.45 324.22-20.1 323.87-21.75 323.32-22.75L323.32-22.75Q322.62-24.05 321.37-24.68 320.12-25.3 318.67-25.3L318.67-25.3Q317.27-25.3 316.15-24.8 315.02-24.3 314.62-23.45L314.62-23.45Q315.32-22.95 315.65-22.15 315.97-21.35 315.97-20.65L315.97-20.65Q315.97-19.4 315.15-18.68 314.32-17.95 313.12-17.95L313.12-17.95Q311.92-17.95 311.15-18.75 310.37-19.55 310.37-21L310.37-21Q310.37-23.1 311.82-24.55 313.27-26 315.5-26.75 317.72-27.5 319.97-27.5L319.97-27.5Q322.02-27.5 323.75-26.88 325.47-26.25 326.67-25.05L326.67-25.05Q329.77-21.95 329.77-14.05L329.77-14.05 329.77-6.8Q329.77-4.35 330.1-3.4 330.42-2.45 331.52-2.45L331.52-2.45 333.77-2.45 333.77-0.95Q330.17 0.5 328.17 0.5L328.17 0.5Q326.62 0.5 326.1-0.63 325.57-1.75 325.57-4.95L325.57-4.95 325.37-4.95Q323.82-2.4 321.27-0.95 318.72 0.5 315.77 0.5L315.77 0.5Q312.62 0.5 310.82-1.2 309.02-2.9 309.02-5.85ZM317.87-2.4L317.87-2.4Q319.27-2.4 320.8-3.13 322.32-3.85 323.37-5.15L323.37-5.15Q324.17-6.15 324.55-7.53 324.92-8.9 324.92-10.75L324.92-10.75Q324.92-11.6 324.87-12.43 324.82-13.25 324.72-14L324.72-14Q320.67-13.2 318.37-12.28 316.07-11.35 315.12-10.08 314.17-8.8 314.17-6.9L314.17-6.9Q314.17-4.75 315.15-3.58 316.12-2.4 317.87-2.4ZM335.37-2.05L339.22-3 339.22-36 335.37-36.95 335.37-39 344.07-39 344.07-3 347.92-2.05 347.92 0 335.37 0 335.37-2.05ZM354.67-24.5L349.82-24.5 349.82-26.3 354.67-27 355.32-33.3 359.52-33.9 359.52-27 365.92-27 365.92-24.5 359.52-24.5 359.52-6.65Q359.52-4.95 359.57-4.33 359.62-3.7 359.77-3.3L359.77-3.3Q359.92-2.95 360.32-2.83 360.72-2.7 361.62-2.7L361.62-2.7 365.12-2.7 365.12-1.25Q362.72-0.35 360.89 0.08 359.07 0.5 357.97 0.5L357.97 0.5Q355.72 0.5 355.07-1.35L355.07-1.35Q354.87-1.95 354.77-2.9 354.67-3.85 354.67-5.7L354.67-5.7 354.67-24.5ZM385.47-2.05L388.82-3 388.82-14.15Q388.82-17.4 388.64-19 388.47-20.6 388.02-21.5L388.02-21.5Q386.82-23.95 383.62-23.95L383.62-23.95Q382.22-23.95 380.92-23.45 379.62-22.95 378.62-22.1L378.62-22.1Q377.52-21.15 376.99-19.83 376.47-18.5 376.37-16.55L376.37-16.55 376.37-3 379.72-2.05 379.72 0 367.67 0 367.67-2.05 371.52-3 371.52-36 367.67-36.95 367.67-39 376.37-39 376.37-22.3Q377.87-24.7 380.34-26.1 382.82-27.5 385.67-27.5L385.67-27.5Q387.67-27.5 389.27-26.8 390.87-26.1 391.82-24.8L391.82-24.8Q392.82-23.4 393.24-20.88 393.67-18.35 393.67-14.05L393.67-14.05 393.67-3 397.52-2.05 397.52 0 385.47 0 385.47-2.05ZM413.71-27.5L413.71-27.5Q416.61-27.5 418.74-26.53 420.86-25.55 422.04-23.8 423.21-22.05 423.21-19.7L423.21-19.7Q423.21-17.85 422.44-16.85 421.66-15.85 420.11-15.85L420.11-15.85Q418.71-15.85 417.89-16.65 417.06-17.45 417.06-18.8L417.06-18.8Q417.06-20.05 417.74-20.95 418.41-21.85 419.56-22.2L419.56-22.2Q418.81-23.65 417.44-24.3 416.06-24.95 414.01-24.95L414.01-24.95Q409.91-24.95 408.04-22.28 406.16-19.6 406.16-13.95L406.16-13.95Q406.16-11.5 406.49-9.73 406.81-7.95 407.46-6.7L407.46-6.7Q408.46-4.85 410.11-3.85 411.76-2.85 414.01-2.85L414.01-2.85Q416.31-2.85 418.41-3.85 420.51-4.85 422.01-6.7L422.01-6.7 423.51-5.5Q421.51-2.45 418.91-0.98 416.31 0.5 412.81 0.5L412.81 0.5Q409.31 0.5 406.74-0.93 404.16-2.35 402.71-5.1L402.71-5.1Q400.91-8.45 400.91-13.2L400.91-13.2Q400.91-17.55 402.49-20.75 404.06-23.95 406.96-25.73 409.86-27.5 413.71-27.5ZM427.31-5.85L427.31-5.85Q427.31-9.75 430.96-12 434.61-14.25 443.06-15.5L443.06-15.5Q442.86-18.45 442.51-20.1 442.16-21.75 441.61-22.75L441.61-22.75Q440.91-24.05 439.66-24.68 438.41-25.3 436.96-25.3L436.96-25.3Q435.56-25.3 434.44-24.8 433.31-24.3 432.91-23.45L432.91-23.45Q433.61-22.95 433.94-22.15 434.26-21.35 434.26-20.65L434.26-20.65Q434.26-19.4 433.44-18.68 432.61-17.95 431.41-17.95L431.41-17.95Q430.21-17.95 429.44-18.75 428.66-19.55 428.66-21L428.66-21Q428.66-23.1 430.11-24.55 431.56-26 433.79-26.75 436.01-27.5 438.26-27.5L438.26-27.5Q440.31-27.5 442.04-26.88 443.76-26.25 444.96-25.05L444.96-25.05Q448.06-21.95 448.06-14.05L448.06-14.05 448.06-6.8Q448.06-4.35 448.39-3.4 448.71-2.45 449.81-2.45L449.81-2.45 452.06-2.45 452.06-0.95Q448.46 0.5 446.46 0.5L446.46 0.5Q444.91 0.5 444.39-0.63 443.86-1.75 443.86-4.95L443.86-4.95 443.66-4.95Q442.11-2.4 439.56-0.95 437.01 0.5 434.06 0.5L434.06 0.5Q430.91 0.5 429.11-1.2 427.31-2.9 427.31-5.85ZM436.16-2.4L436.16-2.4Q437.56-2.4 439.09-3.13 440.61-3.85 441.66-5.15L441.66-5.15Q442.46-6.15 442.84-7.53 443.21-8.9 443.21-10.75L443.21-10.75Q443.21-11.6 443.16-12.43 443.11-13.25 443.01-14L443.01-14Q438.96-13.2 436.66-12.28 434.36-11.35 433.41-10.08 432.46-8.8 432.46-6.9L432.46-6.9Q432.46-4.75 433.44-3.58 434.41-2.4 436.16-2.4ZM469.11-24.1L469.11-24.1Q468.91-24.25 468.63-24.33 468.36-24.4 468.11-24.4L468.11-24.4Q467.51-24.4 466.81-23.85 466.11-23.3 465.46-22.38 464.81-21.45 464.26-20.25L464.26-20.25Q463.56-18.55 463.16-16.53 462.76-14.5 462.76-12.35L462.76-12.35 462.76-3 468.16-2.05 468.16 0 454.06 0 454.06-2.05 457.91-3 457.91-24 454.06-24.95 454.06-27 461.26-27 462.36-20.4 462.56-20.4Q463.71-23.8 465.66-25.65 467.61-27.5 469.96-27.5L469.96-27.5Q471.91-27.5 473.21-26.28 474.51-25.05 474.51-23L474.51-23Q474.51-21.5 473.73-20.63 472.96-19.75 471.66-19.75L471.66-19.75Q470.36-19.75 469.61-20.58 468.86-21.4 468.86-22.75L468.86-22.75Q468.86-23.05 468.91-23.33 468.96-23.6 469.11-24.1ZM499.76-13.2L499.76-13.2 482.31-13.2Q482.31-9.55 483.31-7.15L483.31-7.15Q484.31-4.85 486.16-3.85 488.01-2.85 490.16-2.85L490.16-2.85Q492.51-2.85 494.46-3.83 496.41-4.8 497.96-6.5L497.96-6.5 499.56-5.3Q497.81-2.9 495.31-1.2 492.81 0.5 488.86 0.5L488.86 0.5Q485.41 0.5 482.76-0.98 480.11-2.45 478.71-5.3L478.71-5.3Q477.96-6.85 477.61-8.75 477.26-10.65 477.26-12.8L477.26-12.8Q477.26-19.8 480.48-23.65 483.71-27.5 489.26-27.5L489.26-27.5Q494.36-27.5 497.13-24.33 499.91-21.15 499.91-15.55L499.91-15.55Q499.91-15.05 499.88-14.63 499.86-14.2 499.76-13.2ZM488.96-24.8L488.96-24.8Q482.96-24.8 482.36-15.65L482.36-15.65 494.86-15.65 494.86-17.3Q494.86-20.9 493.33-22.85 491.81-24.8 488.96-24.8ZM535.55-2.15L539.65-3.2 536.7-12.1 523.3-12.1 520.25-3.2 524.4-2.15 524.4 0 512.7 0 512.7-2.15 516.8-3.2 528.8-36.5 533.45-36.5 545.3-3.2 549.3-2.15 549.3 0 535.55 0 535.55-2.15ZM530.35-32.05L530.15-32.05 524.3-15 535.75-15 530.35-32.05ZM559.05-3.7L559.05 6 563.9 6.95 563.9 9 550.35 9 550.35 6.95 554.2 6 554.2-24 550.35-24.95 550.35-27 557.55-27 558.3-23.15Q559.9-25.65 561.92-26.58 563.95-27.5 566.5-27.5L566.5-27.5Q569.05-27.5 571.12-26.75 573.2-26 574.5-24.35L574.5-24.35Q576-22.45 576.87-19.78 577.75-17.1 577.75-14L577.75-14Q577.75-10.8 576.77-7.98 575.8-5.15 574.15-3.25L574.15-3.25Q571.35 0 566.1 0L566.1 0Q563.95 0 562.22-0.83 560.5-1.65 559.05-3.7L559.05-3.7ZM559-13.95L559-13.95Q559-11 559.45-8.8 559.9-6.6 560.75-5.25L560.75-5.25Q561.55-4 562.72-3.3 563.9-2.6 565.75-2.6L565.75-2.6Q567.45-2.6 568.72-3.23 570-3.85 570.8-4.95L570.8-4.95Q571.7-6.2 572.1-8.45 572.5-10.7 572.5-13.6L572.5-13.6Q572.5-16.55 572.05-18.7 571.6-20.85 570.75-22.25L570.75-22.25Q569.95-23.55 568.77-24.23 567.6-24.9 565.7-24.9L565.7-24.9Q564-24.9 562.72-24.33 561.45-23.75 560.75-22.6L560.75-22.6Q559.95-21.25 559.47-19.07 559-16.9 559-13.95ZM590-3.7L590 6 594.84 6.95 594.84 9 581.29 9 581.29 6.95 585.14 6 585.14-24 581.29-24.95 581.29-27 588.5-27 589.25-23.15Q590.84-25.65 592.87-26.58 594.89-27.5 597.44-27.5L597.44-27.5Q600-27.5 602.07-26.75 604.14-26 605.44-24.35L605.44-24.35Q606.94-22.45 607.82-19.78 608.69-17.1 608.69-14L608.69-14Q608.69-10.8 607.72-7.98 606.75-5.15 605.09-3.25L605.09-3.25Q602.29 0 597.04 0L597.04 0Q594.89 0 593.17-0.83 591.44-1.65 590-3.7L590-3.7ZM589.94-13.95L589.94-13.95Q589.94-11 590.39-8.8 590.84-6.6 591.69-5.25L591.69-5.25Q592.5-4 593.67-3.3 594.84-2.6 596.69-2.6L596.69-2.6Q598.39-2.6 599.67-3.23 600.94-3.85 601.75-4.95L601.75-4.95Q602.64-6.2 603.04-8.45 603.44-10.7 603.44-13.6L603.44-13.6Q603.44-16.55 603-18.7 602.54-20.85 601.69-22.25L601.69-22.25Q600.89-23.55 599.72-24.23 598.54-24.9 596.64-24.9L596.64-24.9Q594.94-24.9 593.67-24.33 592.39-23.75 591.69-22.6L591.69-22.6Q590.89-21.25 590.42-19.07 589.94-16.9 589.94-13.95ZM629.44-24.5L624.59-24.5 624.59-26.3 629.44-27 629.44-27.5Q629.44-33.25 631.94-36.38 634.44-39.5 638.69-39.5L638.69-39.5Q641.64-39.5 643.41-38.08 645.19-36.65 645.19-34.45L645.19-34.45Q645.19-33.05 644.49-32.33 643.79-31.6 642.59-31.6L642.59-31.6Q641.44-31.6 640.74-32.25 640.04-32.9 640.04-34.1L640.04-34.1Q640.04-35.4 640.84-36.7L640.84-36.7Q639.99-37.6 638.54-37.6L638.54-37.6Q637.39-37.6 636.54-37.1L636.54-37.1Q635.44-36.45 634.96-35.25 634.49-34.05 634.39-32.58 634.29-31.1 634.29-29.5L634.29-29.5 634.29-27 640.69-27 640.69-24.5 634.29-24.5 634.29-3 639.69-2.05 639.69 0 625.59 0 625.59-2.05 629.44-3 629.44-24.5ZM668.19-13.75L668.19-13.75Q668.19-10.5 667.21-7.58 666.24-4.65 664.49-2.75L664.49-2.75Q662.99-1.1 660.79-0.3 658.59 0.5 655.79 0.5L655.79 0.5Q653.04 0.5 650.89-0.28 648.74-1.05 647.24-2.65L647.24-2.65Q645.54-4.5 644.61-7.23 643.69-9.95 643.69-13.15L643.69-13.15Q643.69-16.4 644.64-19.38 645.59-22.35 647.39-24.25L647.39-24.25Q648.99-25.95 651.11-26.73 653.24-27.5 655.99-27.5L655.99-27.5Q658.74-27.5 660.94-26.73 663.14-25.95 664.64-24.35L664.64-24.35Q666.39-22.5 667.29-19.73 668.19-16.95 668.19-13.75ZM649.04-13.7L649.04-13.7Q649.04-10.65 649.51-8.43 649.99-6.2 650.84-4.75L650.84-4.75Q651.69-3.5 652.86-2.8 654.04-2.1 655.94-2.1L655.94-2.1Q659.39-2.1 661.09-4.45L661.09-4.45Q661.99-5.75 662.41-8.05 662.84-10.35 662.84-13.35L662.84-13.35Q662.84-16.35 662.36-18.6 661.89-20.85 661.04-22.25L661.04-22.25Q660.24-23.55 659.01-24.23 657.79-24.9 655.89-24.9L655.89-24.9Q652.39-24.9 650.84-22.6L650.84-22.6Q649.04-19.8 649.04-13.7ZM687.33-24.1L687.33-24.1Q687.13-24.25 686.86-24.33 686.58-24.4 686.33-24.4L686.33-24.4Q685.73-24.4 685.03-23.85 684.33-23.3 683.68-22.38 683.03-21.45 682.48-20.25L682.48-20.25Q681.78-18.55 681.38-16.53 680.98-14.5 680.98-12.35L680.98-12.35 680.98-3 686.38-2.05 686.38 0 672.28 0 672.28-2.05 676.13-3 676.13-24 672.28-24.95 672.28-27 679.48-27 680.58-20.4 680.78-20.4Q681.93-23.8 683.88-25.65 685.83-27.5 688.18-27.5L688.18-27.5Q690.13-27.5 691.43-26.28 692.73-25.05 692.73-23L692.73-23Q692.73-21.5 691.96-20.63 691.18-19.75 689.88-19.75L689.88-19.75Q688.58-19.75 687.83-20.58 687.08-21.4 687.08-22.75L687.08-22.75Q687.08-23.05 687.13-23.33 687.18-23.6 687.33-24.1ZM728.58-25.1L728.58-11.9 726.03-11.9 725.13-17 716.83-17 716.83-3 731.93-3 733.48-11.15 736.38-11.15 736.38 0 707.13 0 707.13-2.15 711.83-3.2 711.83-32.8 707.13-33.85 707.13-36 735.28-36 735.28-25.4 732.68-25.4 731.08-33.1 716.83-33.1 716.83-20 725.13-20 726.03-25.1 728.58-25.1ZM740.63-2.05L744.48-3 744.48-36 740.63-36.95 740.63-39 749.33-39 749.33-3 753.18-2.05 753.18 0 740.63 0 740.63-2.05ZM756.92-13.25L756.92-13.25Q756.92-16.5 757.77-19.45 758.62-22.4 760.32-24.25L760.32-24.25Q761.77-25.85 763.77-26.68 765.77-27.5 768.37-27.5L768.37-27.5Q770.57-27.5 772.4-26.65 774.22-25.8 775.67-23.6L775.67-23.6 775.67-36 771.82-36.95 771.82-39 780.52-39 780.52-3 784.37-2.05 784.37 0 776.62 0.5 776.22-3.6Q774.67-1.3 772.72-0.4 770.77 0.5 768.37 0.5L768.37 0.5Q765.82 0.5 763.77-0.25 761.72-1 760.37-2.65L760.37-2.65Q758.77-4.6 757.85-7.33 756.92-10.05 756.92-13.25ZM775.67-13.3L775.67-13.3Q775.67-16.35 775.22-18.6 774.77-20.85 773.92-22.25L773.92-22.25Q773.12-23.55 771.97-24.23 770.82-24.9 768.92-24.9L768.92-24.9Q767.22-24.9 765.95-24.3 764.67-23.7 763.87-22.55L763.87-22.55Q762.97-21.3 762.57-18.98 762.17-16.65 762.17-13.65L762.17-13.65Q762.17-10.65 762.62-8.43 763.07-6.2 763.92-4.75L763.92-4.75Q764.77-3.5 765.95-2.8 767.12-2.1 768.97-2.1L768.97-2.1Q770.72-2.1 772-2.68 773.27-3.25 773.92-4.4L773.92-4.4Q774.77-5.8 775.22-8.03 775.67-10.25 775.67-13.3ZM810.47-13.2L810.47-13.2 793.02-13.2Q793.02-9.55 794.02-7.15L794.02-7.15Q795.02-4.85 796.87-3.85 798.72-2.85 800.87-2.85L800.87-2.85Q803.22-2.85 805.17-3.83 807.12-4.8 808.67-6.5L808.67-6.5 810.27-5.3Q808.52-2.9 806.02-1.2 803.52 0.5 799.57 0.5L799.57 0.5Q796.12 0.5 793.47-0.98 790.82-2.45 789.42-5.3L789.42-5.3Q788.67-6.85 788.32-8.75 787.97-10.65 787.97-12.8L787.97-12.8Q787.97-19.8 791.2-23.65 794.42-27.5 799.97-27.5L799.97-27.5Q805.07-27.5 807.85-24.33 810.62-21.15 810.62-15.55L810.62-15.55Q810.62-15.05 810.6-14.63 810.57-14.2 810.47-13.2ZM799.67-24.8L799.67-24.8Q793.67-24.8 793.07-15.65L793.07-15.65 805.57-15.65 805.57-17.3Q805.57-20.9 804.05-22.85 802.52-24.8 799.67-24.8ZM829.67-24.1L829.67-24.1Q829.47-24.25 829.19-24.33 828.92-24.4 828.67-24.4L828.67-24.4Q828.07-24.4 827.37-23.85 826.67-23.3 826.02-22.38 825.37-21.45 824.82-20.25L824.82-20.25Q824.12-18.55 823.72-16.53 823.32-14.5 823.32-12.35L823.32-12.35 823.32-3 828.72-2.05 828.72 0 814.62 0 814.62-2.05 818.47-3 818.47-24 814.62-24.95 814.62-27 821.82-27 822.92-20.4 823.12-20.4Q824.27-23.8 826.22-25.65 828.17-27.5 830.52-27.5L830.52-27.5Q832.47-27.5 833.77-26.28 835.07-25.05 835.07-23L835.07-23Q835.07-21.5 834.29-20.63 833.52-19.75 832.22-19.75L832.22-19.75Q830.92-19.75 830.17-20.58 829.42-21.4 829.42-22.75L829.42-22.75Q829.42-23.05 829.47-23.33 829.52-23.6 829.67-24.1ZM837.12-2.05L840.97-3 840.97-36 837.12-36.95 837.12-39 845.82-39 845.82-3 849.67-2.05 849.67 0 837.12 0 837.12-2.05ZM879.51-24.95L876.46-24 868.16-1.2Q866.76 2.65 865.61 5.03 864.46 7.4 863.06 8.45 861.66 9.5 859.46 9.5L859.46 9.5Q857.11 9.5 855.44 8.25 853.76 7 853.76 5.1L853.76 5.1Q853.76 3.7 854.56 2.78 855.36 1.85 856.66 1.85L856.66 1.85Q857.81 1.85 858.49 2.48 859.16 3.1 859.16 4.2L859.16 4.2Q859.16 4.9 858.89 5.55 858.61 6.2 858.16 6.7L858.16 6.7Q858.26 7.2 858.76 7.38 859.26 7.55 859.61 7.55L859.61 7.55Q860.31 7.55 860.91 7.2 861.51 6.85 862.19 5.73 862.86 4.6 863.66 2.2L863.66 2.2 864.26 0.35 853.91-24 850.91-24.95 850.91-27 862.11-27 862.51-24.95 858.96-24 866.41-4.4 866.61-4.4 872.91-24 870.01-24.95 870.01-27 879.51-27 879.51-24.95Z" opacity="1" transform="matrix(1,0,0,1,0,0)" fill="#000000" class="slogan-text-1" data-fill-palette-color="secondary" id="text-1"></path></svg></g></svg></g></svg></g></svg></g><g><svg viewBox="0 0 45.847983414700515 101.23428289465527" height="101.23428289465527" width="45.847983414700515"><g><svg xmlns="http://www.w3.org/2000/svg" xmlns:xlink="http://www.w3.org/1999/xlink" version="1.1" x="0" y="0" viewBox="31.254383204847436 1.539835509263192 42.79228169158191 94.4871644907368" enable-background="new 0 0 100 100" xml:space="preserve" height="101.23428289465527" width="45.847983414700515" class="icon-icon-0" data-fill-palette-color="accent" id="icon-0"><path fill="#000000" d="M52.145 18.092c1.003 0.401 2.426-0.289 3.161-1.533 0.736-1.243 1.609-2.121 1.942-1.95 0.331 0.172 0.699-0.991 0.817-2.583 0.118-1.592 0.415-2.943 0.659-3.002 0.244-0.061 3.24 2.114 2.619 0.489 0 0-3.07-8.015-10.157-7.973-1.888 0.012-2.874 1.628-2.874 1.628-0.907 1.486-1.666 4.126-1.685 5.866l1.319 6.235C49.252 16.42 51.142 17.691 52.145 18.092z" data-fill-palette-color="accent"></path><g fill="#287a0f" data-fill-palette-color="accent"><path fill="#000000" d="M50.891 91.851C50.401 93.653 51.53 95 53.396 95h8.644c1.865 0 2.353-0.567 1.078-1.415-1.271-0.851-4.039-2.995-4.267-4.849l-0.943-20.123c-0.229-1.852-0.872-4.812-1.43-6.594l-6.231-19.857c-0.559-1.781-1.584-4.652-2.278-6.385l-0.565-1.412c-0.504-1.261-0.407-2.006 0.157-2.006 0.211 0 0.488 0.104 0.822 0.324 0 0 0 0 7.197 5.22 5.79 4.198 12.704 4.63 15.298 4.63 0.668 0 1.05-0.028 1.05-0.028 1.862-0.141 1.988-0.875 0.281-1.631 0 0-6.727-2.982-16.035-10.43-7.714-6.171-1.073-10.539-9.258-13.887-0.596-0.245-1.206-0.363-1.814-0.363-5.848 0-11.773 10.925-8.105 26.702 0.014 0.044 0.025 0.09 0.031 0.137 0.783 3.324 1.991 6.799 3.716 10.494C53.746 81.391 50.891 91.851 50.891 91.851z" data-fill-palette-color="accent"></path><path fill="#000000" d="M34.685 28.461c-2.726 4.613-2.966 6.68-2.818 7.546 0.344 2.004 1.795 3.797 3.186 5.105-0.47-2.536-0.719-5.024-0.732-7.426C34.31 31.876 34.436 30.125 34.685 28.461z" data-fill-palette-color="accent"></path><path fill="#000000" d="M41.669 93.585c-1.358-0.851-3.142-3.317-2.371-5.565l6.966-16.466c-1.52-4.738-3.724-10.479-6.919-17.326-0.593-1.271-1.133-2.536-1.624-3.812l0.182 12.739c0.034 2.376-0.459 6.195-1.095 8.485l-5.402 19.324C30.77 93.254 32.194 95 34.571 95h5.247C42.194 95 43.027 94.433 41.669 93.585z" data-fill-palette-color="accent"></path></g><g fill="#287a0f" data-fill-palette-color="accent"><path fill="#000000" d="M73.148 96.027c-1.577 0-0.598-1.248-0.598-1.674l-0.173-46.731c0-0.618-0.191-1.09-0.527-1.296-0.333-0.207-0.842-0.167-1.393 0.108l-2.851 1.449c-0.539 0.27-1.194 0.052-1.464-0.488-0.271-0.541-0.051-1.196 0.489-1.466l3.135-1.567c1.04-0.52 2.096-0.535 2.895-0.042 0.801 0.494 1.26 1.445 1.26 2.609l-0.177 47.424C73.745 94.779 74.727 96.027 73.148 96.027z" data-fill-palette-color="accent"></path></g></svg></g></svg></g></svg></g><defs></defs></svg><rect width="395.52" height="88.41216644774266" fill="none" stroke="none" visibility="hidden"></rect></g></svg></g></svg>